<?xml version="1.0" encoding="UTF-8"?>
<svg width="200" height="200" viewBox="0 0 200 200" xmlns="http://www.w3.org/2000/svg">
  <!-- Coffee cup -->
  <path d="M50,70 C50,50 150,50 150,70 L140,150 C140,165 60,165 60,150 Z" fill="#8bc34a" stroke="#2e7d32" stroke-width="4"/>
  
  <!-- Cup handle -->
  <path d="M150,85 C180,85 180,115 150,115" fill="none" stroke="#2e7d32" stroke-width="4" stroke-linecap="round"/>
  
  <!-- Steam -->
  <path d="M80,45 C85,35 95,40 90,30" fill="none" stroke="#8bc34a" stroke-width="3" stroke-linecap="round"/>
  <path d="M100,40 C105,30 115,35 110,25" fill="none" stroke="#8bc34a" stroke-width="3" stroke-linecap="round"/>
  <path d="M120,45 C125,35 135,40 130,30" fill="none" stroke="#8bc34a" stroke-width="3" stroke-linecap="round"/>
  
  <!-- Leaf -->
  <path d="M100,90 C120,70 140,90 120,110 C100,90 80,110 100,90" fill="#4caf50" stroke="#2e7d32" stroke-width="2"/>
  
  <!-- Eco symbol -->
  <circle cx="100" cy="110" r="20" fill="none" stroke="#2e7d32" stroke-width="3"/>
  <path d="M90,100 L110,120 M110,100 L90,120" fill="none" stroke="#2e7d32" stroke-width="3" stroke-linecap="round"/>
</svg>
